<svg xmlns="http://www.w3.org/2000/svg" viewBox="0 0 24 24" fill="currentColor"><path d="M0,0H24V24H0Z" fill="none"/><path d="M19,3H5A2,2,0,0,0,3,5V15a2,2,0,0,0,2,2h8.55a4.23,4.23,0,0,1-.05-.5,5,5,0,0,1,5-5,4.9,4.9,0,0,1,2.49.69V5A2,2,0,0,0,19,3Zm-.49,4.25-5.62,2.8a2,2,0,0,1-1.79,0L5.49,7.25a.89.89,0,0,1,.8-1.6L12,8.5l5.71-2.85a.89.89,0,0,1,.8,1.6Z"/><path d="M18.5,13A3.5,3.5,0,1,0,22,16.5,3.5,3.5,0,0,0,18.5,13ZM20,17H19v1a.5.5,0,0,1-1,0V17H17a.5.5,0,0,1,0-1h1V15a.5.5,0,0,1,1,0v1h1a.5.5,0,0,1,0,1Z"/></svg>
